<?xml version="1.0" encoding="UTF-8" standalone="no"?>
<!DOCTYPE svg PUBLIC "-//W3C//DTD SVG 1.1//EN" "http://www.w3.org/Graphics/SVG/1.1/DTD/svg11.dtd">
<svg version="1.1" xmlns="http://www.w3.org/2000/svg" xmlns:xlink="http://www.w3.org/1999/xlink" preserveAspectRatio="xMidYMid meet" viewBox="0 0 640 640" width="640" height="640"><defs><path d="M588.35 433.2C588.35 485.77 543.72 528.45 488.74 528.45C433.76 528.45 389.13 485.77 389.13 433.2C389.13 380.64 433.76 337.96 488.74 337.96C543.72 337.96 588.35 380.64 588.35 433.2Z" id="a7dnTGWZ97"></path><path d="M491.94 324.37C497.46 324.37 501.94 328.85 501.94 334.37C501.94 340.37 501.94 348.37 501.94 354.37C501.94 359.89 497.46 364.37 491.94 364.37C485.94 364.37 477.94 364.37 471.94 364.37C466.42 364.37 461.94 359.89 461.94 354.37C461.94 348.37 461.94 340.37 461.94 334.37C461.94 328.85 466.42 324.37 471.94 324.37C477.94 324.37 485.94 324.37 491.94 324.37Z" id="bTW5J2Q1d"></path><path d="M488.74 324.95L488.74 313.3L485.83 303.59L480 293.88L475.15 283.2L467.38 276.41L459.61 269.61L453.79 259.9L450.87 249.22L452.82 237.57L462.52 229.81L473.2 220.1L482.91 212.33L492.62 204.56L502.33 195.83L511.07 185.15L517.86 177.38L527.57 170.58L534.37 162.82" id="baYlt3zGb"></path><path d="M521.36 238.06L521.36 227.38L514.56 215.73L508.74 206.99L499.03 214.76L488.35 222.52L477.67 227.38L469.9 217.67L466.99 206.02L465.05 195.34L457.28 188.54L447.57 183.69L437.86 179.81L451.46 175.92L464.08 175.92L476.7 176.89L482.52 165.24L482.52 153.59L478.64 142.91L491.26 145.83L500.97 139.03L509.71 133.2L520.39 129.32L517.48 140L515.53 150.68L526.21 148.74L539.81 144.85L549.51 141.94L561.17 140L553.4 146.8L544.66 152.62L536.89 159.42L553.4 166.21L566.99 170.1L561.17 178.83L551.46 182.72L555.34 192.43L561.17 202.14L569.9 209.9L555.34 206.99L545.63 202.14L536.89 208.93L532.04 220.58L528.16 232.23L526.21 243.88L520.39 234.17" id="cNrYtrnL"></path><path d="M508.64 171.55L497.96 171.55L485.34 170.58L493.11 177.38L480.49 186.12L474.66 194.85L486.31 193.88L496.02 189.03L496.02 199.71L495.05 210.39L503.79 202.62L509.61 192.91L516.41 201.65L524.17 194.85L533.88 198.74L543.59 201.65L537.77 192.91L530 186.12L538.74 180.29L528.06 177.38L528.06 165.73L522.23 175.44L518.35 165.73L512.52 156.99L508.64 166.7L508.64 171.55Z" id="aiwmBh4qp"></path></defs><g><g><g><use xlink:href="#a7dnTGWZ97" opacity="1" fill="#000000" fill-opacity="1"></use><g><use xlink:href="#a7dnTGWZ97" opacity="1" fill-opacity="0" stroke="#a7a6a6" stroke-width="1" stroke-opacity="1"></use></g></g><g><use xlink:href="#bTW5J2Q1d" opacity="1" fill="#000000" fill-opacity="1"></use></g><g><g><use xlink:href="#baYlt3zGb" opacity="1" fill-opacity="0" stroke="#8d8c89" stroke-width="8" stroke-opacity="1"></use></g></g><g><use xlink:href="#cNrYtrnL" opacity="1" fill="#fbd200" fill-opacity="1"></use><g><use xlink:href="#cNrYtrnL" opacity="1" fill-opacity="0" stroke="#8d8c89" stroke-width="1" stroke-opacity="1"></use></g></g><g><use xlink:href="#aiwmBh4qp" opacity="1" fill="#f5a406" fill-opacity="1"></use></g></g></g></svg>