<?xml version="1.0" encoding="UTF-8" standalone="no"?>
<!DOCTYPE svg PUBLIC "-//W3C//DTD SVG 1.1//EN" "http://www.w3.org/Graphics/SVG/1.1/DTD/svg11.dtd">
<svg version="1.1" xmlns="http://www.w3.org/2000/svg" xmlns:xlink="http://www.w3.org/1999/xlink" preserveAspectRatio="xMidYMid meet" viewBox="0 0 640 640" width="640" height="640"><defs><path d="M588.35 433.2C588.35 485.77 543.72 528.45 488.74 528.45C433.76 528.45 389.13 485.77 389.13 433.2C389.13 380.64 433.76 337.96 488.74 337.96C543.72 337.96 588.35 380.64 588.35 433.2Z" id="a7dnTGWZ97"></path><path d="M491.94 324.37C497.46 324.37 501.94 328.85 501.94 334.37C501.94 340.37 501.94 348.37 501.94 354.37C501.94 359.89 497.46 364.37 491.94 364.37C485.94 364.37 477.94 364.37 471.94 364.37C466.42 364.37 461.94 359.89 461.94 354.37C461.94 348.37 461.94 340.37 461.94 334.37C461.94 328.85 466.42 324.37 471.94 324.37C477.94 324.37 485.94 324.37 491.94 324.37Z" id="bTW5J2Q1d"></path><path d="M481.94 360.97L481.94 348.35L481.94 337.67L481.94 325.05L479.03 313.4L475.15 303.69L468.35 294.95L459.61 281.36L454.76 269.71L453.79 259.03L456.7 248.35L465.44 242.52L473.2 235.73" id="b1spfKz9J"></path><path d="M476.5 320.58L476.5 309.9L469.71 298.25L463.88 289.51L454.17 297.28L443.5 305.05L432.82 309.9L425.05 300.19L422.14 288.54L420.19 277.86L412.43 271.07L402.72 266.21L393.01 262.33L406.6 258.45L419.22 258.45L431.84 259.42L437.67 247.77L437.67 236.12L433.79 225.44L446.41 228.35L456.12 221.55L464.85 215.73L475.53 211.84L472.62 222.52L470.68 233.2L481.36 231.26L494.95 227.38L504.66 224.47L516.31 222.52L508.54 229.32L499.81 235.15L492.04 241.94L508.54 248.74L522.14 252.62L516.31 261.36L506.6 265.24L510.49 274.95L516.31 284.66L525.05 292.43L510.49 289.51L500.78 284.66L492.04 291.46L487.18 303.11L483.3 314.76L481.36 326.41L475.53 316.7" id="c1AD78T0wP"></path><path d="M467.67 249.81L456.99 249.81L444.37 248.83L452.14 255.63L439.51 264.37L433.69 273.11L445.34 272.14L455.05 267.28L455.05 277.96L454.08 288.64L462.82 280.87L468.64 271.17L475.44 279.9L483.2 273.11L492.91 276.99L502.62 279.9L496.8 271.17L489.03 264.37L497.77 258.54L487.09 255.63L487.09 243.98L481.26 253.69L477.38 243.98L471.55 235.24L467.67 244.95L467.67 249.81Z" id="cFbBK1UIU"></path></defs><g><g><g><use xlink:href="#a7dnTGWZ97" opacity="1" fill="#000000" fill-opacity="1"></use><g><use xlink:href="#a7dnTGWZ97" opacity="1" fill-opacity="0" stroke="#a7a6a6" stroke-width="1" stroke-opacity="1"></use></g></g><g><use xlink:href="#bTW5J2Q1d" opacity="1" fill="#000000" fill-opacity="1"></use></g><g><g><use xlink:href="#b1spfKz9J" opacity="1" fill-opacity="0" stroke="#8d8c89" stroke-width="9" stroke-opacity="1"></use></g></g><g><use xlink:href="#c1AD78T0wP" opacity="1" fill="#fbd200" fill-opacity="1"></use><g><use xlink:href="#c1AD78T0wP" opacity="1" fill-opacity="0" stroke="#8d8c89" stroke-width="1" stroke-opacity="1"></use></g></g><g><use xlink:href="#cFbBK1UIU" opacity="1" fill="#f5a406" fill-opacity="1"></use></g></g></g></svg>