<?xml version="1.0" encoding="UTF-8" standalone="no"?>
<!DOCTYPE svg PUBLIC "-//W3C//DTD SVG 1.1//EN" "http://www.w3.org/Graphics/SVG/1.1/DTD/svg11.dtd">
<svg version="1.1" xmlns="http://www.w3.org/2000/svg" xmlns:xlink="http://www.w3.org/1999/xlink" preserveAspectRatio="xMidYMid meet" viewBox="0 0 640 640" width="640" height="640"><defs><path d="M588.35 433.2C588.35 485.77 543.72 528.45 488.74 528.45C433.76 528.45 389.13 485.77 389.13 433.2C389.13 380.64 433.76 337.96 488.74 337.96C543.72 337.96 588.35 380.64 588.35 433.2Z" id="a7dnTGWZ97"></path><path d="M491.94 324.37C497.46 324.37 501.94 328.85 501.94 334.37C501.94 340.37 501.94 348.37 501.94 354.37C501.94 359.89 497.46 364.37 491.94 364.37C485.94 364.37 477.94 364.37 471.94 364.37C466.42 364.37 461.94 359.89 461.94 354.37C461.94 348.37 461.94 340.37 461.94 334.37C461.94 328.85 466.42 324.37 471.94 324.37C477.94 324.37 485.94 324.37 491.94 324.37Z" id="bTW5J2Q1d"></path><path d="M484.85 340.49L484.85 328.83L484.85 314.27L481.94 302.62L477.09 290.97L468.35 283.2L456.7 274.47L448.93 265.73L445.05 255.05L445.05 244.37L447.96 232.72L453.79 223.01L462.52 217.18L473.2 210.39L481.94 201.65L489.71 194.85L500.39 188.06L511.07 180.29L524.66 167.67L536.31 152.14L542.14 142.43L547.96 133.69L552.82 123.98L546.99 114.27L541.17 105.53" id="bk2x83YPB"></path><path d="M558.25 208.45L558.25 197.77L551.46 186.12L545.63 177.38L535.92 185.15L525.24 192.91L514.56 197.77L506.8 188.06L503.88 176.41L501.94 165.73L494.17 158.93L484.47 154.08L474.76 150.19L488.35 146.31L500.97 146.31L513.59 147.28L519.42 135.63L519.42 123.98L515.53 113.3L528.16 116.21L537.86 109.42L546.6 103.59L557.28 99.71L554.37 110.39L552.43 121.07L563.11 119.13L576.7 115.24L586.41 112.33L598.06 110.39L590.29 117.18L581.55 123.01L573.79 129.81L590.29 136.6L603.88 140.49L598.06 149.22L588.35 153.11L592.23 162.82L598.06 172.52L606.8 180.29L592.23 177.38L582.52 172.52L573.79 179.32L568.93 190.97L565.05 202.62L563.11 214.27L557.28 204.56" id="a1ds456u0d"></path><path d="M548.45 138.54L537.77 138.54L525.15 137.57L532.91 144.37L520.29 153.11L514.47 161.84L526.12 160.87L535.83 156.02L535.83 166.7L534.85 177.38L543.59 169.61L549.42 159.9L556.21 168.64L563.98 161.84L573.69 165.73L583.4 168.64L577.57 159.9L569.81 153.11L578.54 147.28L567.86 144.37L567.86 132.72L562.04 142.43L558.16 132.72L552.33 123.98L548.45 133.69L548.45 138.54Z" id="cvurC9tkL"></path></defs><g><g><g><use xlink:href="#a7dnTGWZ97" opacity="1" fill="#000000" fill-opacity="1"></use><g><use xlink:href="#a7dnTGWZ97" opacity="1" fill-opacity="0" stroke="#a7a6a6" stroke-width="1" stroke-opacity="1"></use></g></g><g><use xlink:href="#bTW5J2Q1d" opacity="1" fill="#000000" fill-opacity="1"></use></g><g><g><use xlink:href="#bk2x83YPB" opacity="1" fill-opacity="0" stroke="#999999" stroke-width="7" stroke-opacity="1"></use></g></g><g><use xlink:href="#a1ds456u0d" opacity="1" fill="#fbd200" fill-opacity="1"></use><g><use xlink:href="#a1ds456u0d" opacity="1" fill-opacity="0" stroke="#8d8c89" stroke-width="1" stroke-opacity="1"></use></g></g><g><use xlink:href="#cvurC9tkL" opacity="1" fill="#f5a406" fill-opacity="1"></use></g></g></g></svg>