<?xml version="1.0" encoding="UTF-8" standalone="no"?>
<!DOCTYPE svg PUBLIC "-//W3C//DTD SVG 1.1//EN" "http://www.w3.org/Graphics/SVG/1.1/DTD/svg11.dtd">
<svg version="1.1" xmlns="http://www.w3.org/2000/svg" xmlns:xlink="http://www.w3.org/1999/xlink" preserveAspectRatio="xMidYMid meet" viewBox="0 0 640 640" width="640" height="640"><defs><path d="M65.1 99.84L47.6 99.84L29.12 99.84L17.45 99.84L1.89 98.87L-25.34 101.79L-44.78 104.7L-59.37 107.62L-76.87 112.48L-87.57 116.37L-99.24 119.29L-108.97 122.21L-123.55 127.07L-134.25 129.99L-139.11 145.55L-135.22 157.22L-131.33 168.88L-126.47 180.55L-122.58 191.25L-118.69 202.92L-113.83 217.51L-108.97 232.09L-104.1 245.71L-100.21 255.43L-91.46 273.91L-82.71 286.55L-71.04 298.22L-59.37 306.97L-48.67 314.75L-34.09 322.53L-23.39 329.34L-13.67 336.14L-18.53 347.81L-34.09 364.35L-41.87 375.04L-50.62 387.68L-59.37 409.08L-64.23 430.47L-66.18 442.14L-68.12 461.59L-69.1 478.12L-69.1 494.65L-67.15 508.27L-65.21 527.72L-65.21 543.27L-65.21 559.81L-65.21 582.17L-65.21 594.81L-62.29 604.54L-46.73 602.59L-36.03 600.65L-24.36 597.73L-10.75 594.81L1.89 590.92L15.51 587.03L33.01 580.23L45.65 573.42L54.4 566.61L55.38 554.94L70.94 536.47L83.58 528.69L101.08 521.88L101.08 534.52L104 546.19L107.89 556.89L112.75 568.56L119.56 583.14L125.39 591.9L133.17 601.62L139.98 611.35L151.65 620.1L197.35 646.35L208.05 652.19L219.72 657.05L230.42 657.05L241.11 658.02L250.84 655.11L256.67 643.44L261.53 633.71L270.29 620.1L275.15 608.43L280.01 591.9L282.93 581.2L293.62 578.28L305.29 579.25L315.02 588.98L317.93 600.65L319.88 612.32L320.85 623.01L320.85 633.71L320.85 646.35L320.85 664.83L321.82 676.5L324.74 687.2L328.63 696.92L338.36 699.84L349.05 712.48L353.91 726.09L360.72 741.65L373.36 743.6L390.87 739.71L406.43 735.82L417.12 732.9L432.68 728.04L475.47 698.87L502.7 677.47L538.68 655.11L559.1 643.44L569.8 637.6L584.38 628.85L594.11 618.15L602.86 609.4L594.11 603.57L577.58 594.81L566.88 580.23L559.1 570.5L552.29 558.83L548.4 549.11L555.21 539.38L572.71 535.49L584.38 531.61L602.86 524.8L620.36 518.96L639.81 513.13L652.45 506.32L661.2 500.49L671.9 489.79L673.85 471.31L673.85 455.75L664.12 417.83L660.23 404.22L658.29 393.52L656.34 379.9L656.34 363.37L661.2 349.76L664.12 334.2L656.34 326.42L644.67 326.42L633.98 326.42L636.89 315.72L643.7 302.11L653.43 280.72L669.96 247.65L673.85 236.96L686.49 210.7L693.3 198.06L702.05 184.44L714.69 169.86L726.36 153.33L733.16 145.55L742.89 135.82L740.94 124.15L723.44 120.26L695.24 119.29L655.37 117.34L627.17 114.43L610.64 112.48L593.13 110.54L582.44 109.57L568.82 109.57L559.1 112.48L568.82 99.84L574.66 91.09L579.52 80.39L586.33 67.75L594.11 52.19L591.19 42.47L583.41 35.66L574.66 26.91L561.04 20.1L550.35 15.24L534.79 6.49L514.37 1.62L498.81 1.62L487.14 1.62L477.41 4.54L469.63 11.35L462.83 23.02L458.94 33.71L446.3 23.99L435.6 10.38L424.9 -4.21L418.1 -12.96L407.4 -24.63L397.67 -35.33L387.95 -44.08L376.28 -52.83L363.64 -52.83L351.97 -52.83L327.66 -52.83L313.07 -52.83L294.6 -52.83L268.34 -52.83L241.11 -52.83L218.75 -52.83L201.24 -52.83L189.57 -52.83L174.01 -52.83L163.32 -52.83L151.65 -46.03L142.9 -38.25L139.01 -28.52L137.06 -16.85L139.98 -7.13L148.73 -0.32L143.87 10.38L132.2 14.27L117.61 14.27L107.89 11.35L94.27 4.54L77.74 0.65L59.27 -4.21L48.57 -6.16L35.93 -9.07L20.37 -9.07L6.75 -9.07L-6.86 -9.07L-24.36 -7.13L-38.95 -4.21L-58.4 0.65L-74.93 6.49L-89.52 13.29L-102.16 26.91L-107.02 37.6L-107.99 48.3L-107.99 59L-107.02 71.64L-98.27 77.47L-81.74 78.45L-55.48 81.36L-34.09 86.23L-18.53 91.09L-8.8 95.95L17.45 107.62" id="b4NNUK0xec"></path><path d="M397.03 607.82L397.03 548.82L363.83 484.45L335.37 436.18L287.94 479.09L235.77 522L183.6 548.82L145.66 495.18L131.43 430.81L121.94 371.81L84 334.26L36.57 307.44L-10.86 285.99L55.54 264.53L117.2 264.53L178.86 269.9L207.31 205.53L207.31 141.17L188.34 82.16L250 98.26L297.43 60.71L340.12 28.53L392.29 7.07L378.06 66.07L368.57 125.07L420.74 114.35L487.15 92.89L534.57 76.8L591.49 66.07L553.55 103.62L510.86 135.8L472.92 173.35L553.55 210.9L619.95 232.35L591.49 280.62L544.06 302.08L563.03 355.72L591.49 409.36L634.17 452.27L563.03 436.18L515.6 409.36L472.92 446.9L449.2 511.27L430.23 575.63L420.74 640L392.29 586.36" id="f2enjVPrlw"></path><path d="M326.77 253.58L270.66 253.58L204.36 248.27L245.16 285.46L178.86 333.28L148.25 381.1L209.46 375.79L260.46 349.22L260.46 407.67L255.36 466.12L301.27 423.61L331.87 370.48L367.57 418.3L408.38 381.1L459.38 402.36L510.39 418.3L479.79 370.48L438.98 333.28L484.89 301.4L428.78 285.46L428.78 221.7L398.18 274.84L377.78 221.7L347.17 173.88L326.77 227.02L326.77 253.58Z" id="a3C6JsCV5G"></path></defs><g><g><g><use xlink:href="#b4NNUK0xec" opacity="1" fill="#860e0e" fill-opacity="1"></use></g><g><use xlink:href="#f2enjVPrlw" opacity="1" fill="#fbd200" fill-opacity="1"></use></g><g><use xlink:href="#a3C6JsCV5G" opacity="1" fill="#f5a406" fill-opacity="1"></use></g></g></g></svg>