<?xml version="1.0" encoding="UTF-8" standalone="no"?>
<!DOCTYPE svg PUBLIC "-//W3C//DTD SVG 1.1//EN" "http://www.w3.org/Graphics/SVG/1.1/DTD/svg11.dtd">
<svg version="1.1" xmlns="http://www.w3.org/2000/svg" xmlns:xlink="http://www.w3.org/1999/xlink" preserveAspectRatio="xMidYMid meet" viewBox="0 0 640 640" width="640" height="640"><defs><path d="M496.02 406.99L496.02 394.37L496.02 383.69L496.02 371.07L493.11 359.42L489.22 349.71L482.43 340.97L473.69 327.38L468.83 315.73L467.86 305.05L470.78 294.37L479.51 288.54L487.28 281.75" id="f4zAuxrMk"></path><path d="M588.35 433.2C588.35 485.77 543.72 528.45 488.74 528.45C433.76 528.45 389.13 485.77 389.13 433.2C389.13 380.64 433.76 337.96 488.74 337.96C543.72 337.96 588.35 380.64 588.35 433.2Z" id="a7dnTGWZ97"></path><path d="M491.94 324.37C497.46 324.37 501.94 328.85 501.94 334.37C501.94 340.37 501.94 348.37 501.94 354.37C501.94 359.89 497.46 364.37 491.94 364.37C485.94 364.37 477.94 364.37 471.94 364.37C466.42 364.37 461.94 359.89 461.94 354.37C461.94 348.37 461.94 340.37 461.94 334.37C461.94 328.85 466.42 324.37 471.94 324.37C477.94 324.37 485.94 324.37 491.94 324.37Z" id="bTW5J2Q1d"></path><path d="M485.34 364.37L485.34 353.69L478.54 342.04L472.72 333.3L463.01 341.07L452.33 348.83L441.65 353.69L433.88 343.98L430.97 332.33L429.03 321.65L421.26 314.85L411.55 310L401.84 306.12L415.44 302.23L428.06 302.23L440.68 303.2L446.5 291.55L446.5 279.9L442.62 269.22L455.24 272.14L464.95 265.34L473.69 259.51L484.37 255.63L481.46 266.31L479.51 276.99L490.19 275.05L503.79 271.17L513.5 268.25L525.15 266.31L517.38 273.11L508.64 278.93L500.87 285.73L517.38 292.52L530.97 296.41L525.15 305.15L515.44 309.03L519.32 318.74L525.15 328.45L533.88 336.21L519.32 333.3L509.61 328.45L500.87 335.24L496.02 346.89L492.14 358.54L490.19 370.19L484.37 360.49" id="d1lMJ6m3iF"></path><path d="M469.61 288.64L458.93 288.64L446.31 287.67L454.08 294.47L441.46 303.2L435.63 311.94L447.28 310.97L456.99 306.12L456.99 316.8L456.02 327.48L464.76 319.71L470.58 310L477.38 318.74L485.15 311.94L494.85 315.83L504.56 318.74L498.74 310L490.97 303.2L499.71 297.38L489.03 294.47L489.03 282.82L483.2 292.52L479.32 282.82L473.5 274.08L469.61 283.79L469.61 288.64Z" id="coeY3a4Zw"></path></defs><g><g><g><g><use xlink:href="#f4zAuxrMk" opacity="1" fill-opacity="0" stroke="#8d8c89" stroke-width="9" stroke-opacity="1"></use></g></g><g><use xlink:href="#a7dnTGWZ97" opacity="1" fill="#000000" fill-opacity="1"></use><g><use xlink:href="#a7dnTGWZ97" opacity="1" fill-opacity="0" stroke="#a7a6a6" stroke-width="1" stroke-opacity="1"></use></g></g><g><use xlink:href="#bTW5J2Q1d" opacity="1" fill="#000000" fill-opacity="1"></use></g><g><use xlink:href="#d1lMJ6m3iF" opacity="1" fill="#fbd200" fill-opacity="1"></use><g><use xlink:href="#d1lMJ6m3iF" opacity="1" fill-opacity="0" stroke="#8d8c89" stroke-width="1" stroke-opacity="1"></use></g></g><g><use xlink:href="#coeY3a4Zw" opacity="1" fill="#f5a406" fill-opacity="1"></use></g></g></g></svg>