<?xml version="1.0" encoding="UTF-8" standalone="no"?>
<!DOCTYPE svg PUBLIC "-//W3C//DTD SVG 1.1//EN" "http://www.w3.org/Graphics/SVG/1.1/DTD/svg11.dtd">
<svg version="1.1" xmlns="http://www.w3.org/2000/svg" xmlns:xlink="http://www.w3.org/1999/xlink" preserveAspectRatio="xMidYMid meet" viewBox="0 0 640 640" width="640" height="640"><defs><path d="M588.35 433.2C588.35 485.77 543.72 528.45 488.74 528.45C433.76 528.45 389.13 485.77 389.13 433.2C389.13 380.64 433.76 337.96 488.74 337.96C543.72 337.96 588.35 380.64 588.35 433.2Z" id="a7dnTGWZ97"></path><path d="M491.94 324.37C497.46 324.37 501.94 328.85 501.94 334.37C501.94 340.37 501.94 348.37 501.94 354.37C501.94 359.89 497.46 364.37 491.94 364.37C485.94 364.37 477.94 364.37 471.94 364.37C466.42 364.37 461.94 359.89 461.94 354.37C461.94 348.37 461.94 340.37 461.94 334.37C461.94 328.85 466.42 324.37 471.94 324.37C477.94 324.37 485.94 324.37 491.94 324.37Z" id="bTW5J2Q1d"></path><path d="M482.23 351.26L482.23 338.64L482.23 327.96L482.23 315.34L479.32 303.69L475.44 293.98L468.64 285.24L459.9 271.65L455.05 260L454.08 249.32L456.99 238.64L465.73 232.82L473.5 226.02" id="j8frzoomz"></path><path d="M490.29 279.81L490.29 269.13L483.5 257.48L477.67 248.74L467.96 256.5L457.28 264.27L446.6 269.13L438.83 259.42L435.92 247.77L433.98 237.09L426.21 230.29L416.5 225.44L406.8 221.55L420.39 217.67L433.01 217.67L445.63 218.64L451.46 206.99L451.46 195.34L447.57 184.66L460.19 187.57L469.9 180.78L478.64 174.95L489.32 171.07L486.41 181.75L484.47 192.43L495.15 190.49L508.74 186.6L518.45 183.69L530.1 181.75L522.33 188.54L513.59 194.37L505.83 201.17L522.33 207.96L535.92 211.84L530.1 220.58L520.39 224.47L524.27 234.17L530.1 243.88L538.83 251.65L524.27 248.74L514.56 243.88L505.83 250.68L500.97 262.33L497.09 273.98L495.15 285.63L489.32 275.92" id="asFZmg9a7"></path><path d="M481.75 208.45L471.07 208.45L458.45 207.48L466.21 214.27L453.59 223.01L447.77 231.75L459.42 230.78L469.13 225.92L469.13 236.6L468.16 247.28L476.89 239.51L482.72 229.81L489.51 238.54L497.28 231.75L506.99 235.63L516.7 238.54L510.87 229.81L503.11 223.01L511.84 217.18L501.17 214.27L501.17 202.62L495.34 212.33L491.46 202.62L485.63 193.88L481.75 203.59L481.75 208.45Z" id="c25UmcbK5S"></path></defs><g><g><g><use xlink:href="#a7dnTGWZ97" opacity="1" fill="#000000" fill-opacity="1"></use><g><use xlink:href="#a7dnTGWZ97" opacity="1" fill-opacity="0" stroke="#a7a6a6" stroke-width="1" stroke-opacity="1"></use></g></g><g><use xlink:href="#bTW5J2Q1d" opacity="1" fill="#000000" fill-opacity="1"></use></g><g><g><use xlink:href="#j8frzoomz" opacity="1" fill-opacity="0" stroke="#8d8c89" stroke-width="9" stroke-opacity="1"></use></g></g><g><use xlink:href="#asFZmg9a7" opacity="1" fill="#fbd200" fill-opacity="1"></use><g><use xlink:href="#asFZmg9a7" opacity="1" fill-opacity="0" stroke="#8d8c89" stroke-width="1" stroke-opacity="1"></use></g></g><g><use xlink:href="#c25UmcbK5S" opacity="1" fill="#f5a406" fill-opacity="1"></use></g></g></g></svg>